<svg width="24.000000" height="24.000000" viewBox="0 0 24 24" fill="none" xmlns="http://www.w3.org/2000/svg" xmlns:xlink="http://www.w3.org/1999/xlink">
	<desc>
			Created with Pixso.
	</desc>
	<defs>
		<clipPath id="clip5_25">
			<rect id="bell" rx="-0.500000" width="23.000000" height="23.000000" transform="translate(0.500000 0.500000)" fill="white" fill-opacity="0"/>
		</clipPath>
	</defs>
	<rect id="bell" rx="-0.500000" width="23.000000" height="23.000000" transform="translate(0.500000 0.500000)" fill="#FFFFFF" fill-opacity="0"/>
	<g clip-path="url(#clip5_25)">
		<path id="Vector" d="M16.24 3.75C15.11 2.63 13.59 2 12 2C10.4 2 8.88 2.63 7.75 3.75C6.63 4.88 6 6.4 6 8C6 15 3 17 3 17L21 17C21 17 18 15 18 8C18 6.4 17.36 4.88 16.24 3.75Z" stroke="#AAAAAA" stroke-opacity="1.000000" stroke-width="2.000000" stroke-linejoin="round"/>
		<path id="Vector" d="M13.73 21C13.55 21.3 13.3 21.55 12.99 21.72C12.69 21.9 12.35 21.99 12 21.99C11.64 21.99 11.3 21.9 11 21.72C10.69 21.55 10.44 21.3 10.27 21" stroke="#AAAAAA" stroke-opacity="1.000000" stroke-width="2.000000" stroke-linejoin="round" stroke-linecap="round"/>
		<circle id="Ellipse 8" cx="19.000000" cy="6.000000" r="5.000000" fill="#FC8338" fill-opacity="1.000000"/>
		<circle id="Ellipse 8" cx="19.000000" cy="6.000000" r="4.000000" stroke="#FFFFFF" stroke-opacity="1.000000" stroke-width="2.000000"/>
	</g>
</svg>
