<svg width="24.000000" height="24.000000" viewBox="0 0 24 24" fill="none" xmlns="http://www.w3.org/2000/svg" xmlns:xlink="http://www.w3.org/1999/xlink">
	<desc>
			Created with Pixso.
	</desc>
	<defs>
		<clipPath id="clip5_9">
			<rect width="24.000000" height="24.000000" fill="white" fill-opacity="0"/>
		</clipPath>
	</defs>
	<rect width="24.000000" height="24.000000" fill="#FFFFFF" fill-opacity="0"/>
	<g clip-path="url(#clip5_9)">
		<path d="M20 7C21.1 7 22 7.89 22 9L22 19C22 20.1 21.1 21 20 21L4 21C2.89 21 2 20.1 2 19L2 9C2 7.89 2.89 7 4 7L20 7Z" stroke="#AAAAAA" stroke-opacity="1.000000" stroke-width="2.000000" stroke-linejoin="round"/>
		<path d="M16 21L16 5C16 4.46 15.78 3.96 15.41 3.58C15.03 3.21 14.53 3 14 3L10 3C9.46 3 8.96 3.21 8.58 3.58C8.21 3.96 8 4.46 8 5L8 21" stroke="#AAAAAA" stroke-opacity="1.000000" stroke-width="2.000000" stroke-linejoin="round" stroke-linecap="round"/>
	</g>
</svg>
