<svg width="20.000000" height="20.000000" viewBox="0 0 20 20" fill="none" xmlns="http://www.w3.org/2000/svg" xmlns:xlink="http://www.w3.org/1999/xlink">
	<desc>
			Created with Pixso.
	</desc>
	<defs>
		<clipPath id="clip16_52">
			<rect id="camera (1) 1" rx="-0.500000" width="19.000000" height="19.000000" transform="translate(0.500000 0.500000)" fill="white" fill-opacity="0"/>
		</clipPath>
	</defs>
	<rect id="camera (1) 1" rx="-0.500000" width="19.000000" height="19.000000" transform="translate(0.500000 0.500000)" fill="#FFFFFF" fill-opacity="0"/>
	<g clip-path="url(#clip16_52)">
		<path id="Vector" d="M18.67 17.01C18.36 17.32 17.94 17.5 17.5 17.5L2.5 17.5C2.05 17.5 1.63 17.32 1.32 17.01C1 16.69 0.83 16.27 0.83 15.83L0.83 6.66C0.83 6.22 1 5.8 1.32 5.48C1.63 5.17 2.05 5 2.5 5L5.83 5L7.5 2.5L12.5 2.5L14.16 5L17.5 5C17.94 5 18.36 5.17 18.67 5.48C18.99 5.8 19.16 6.22 19.16 6.66L19.16 15.83C19.16 16.27 18.99 16.69 18.67 17.01Z" stroke="#A7B4CC" stroke-opacity="1.000000" stroke-width="1.500000" stroke-linejoin="round"/>
		<path id="Vector" d="M9.99 14.16C8.15 14.16 6.66 12.67 6.66 10.83C6.66 8.99 8.15 7.5 9.99 7.5C11.84 7.5 13.33 8.99 13.33 10.83C13.33 12.67 11.84 14.16 9.99 14.16Z" stroke="#A7B4CC" stroke-opacity="1.000000" stroke-width="1.500000" stroke-linejoin="round"/>
	</g>
</svg>
