<svg width="24.000000" height="24.000000" viewBox="0 0 24 24" fill="none" xmlns="http://www.w3.org/2000/svg" xmlns:xlink="http://www.w3.org/1999/xlink">
	<desc>
			Created with Pixso.
	</desc>
	<defs>
		<clipPath id="clip14_18">
			<rect id="more-horizontal (1) 1" rx="-0.500000" width="23.000000" height="23.000000" transform="translate(0.500000 0.500000)" fill="white" fill-opacity="0"/>
		</clipPath>
	</defs>
	<rect id="more-horizontal (1) 1" rx="-0.500000" width="23.000000" height="23.000000" transform="translate(0.500000 0.500000)" fill="#FFFFFF" fill-opacity="0"/>
	<g clip-path="url(#clip14_18)">
		<path id="Vector" d="M12 13C11.44 13 11 12.55 11 12C11 11.44 11.44 11 12 11C12.55 11 13 11.44 13 12C13 12.55 12.55 13 12 13Z" stroke="#AAAAAA" stroke-opacity="1.000000" stroke-width="2.000000" stroke-linejoin="round"/>
		<path id="Vector" d="M19 13C18.44 13 18 12.55 18 12C18 11.44 18.44 11 19 11C19.55 11 20 11.44 20 12C20 12.55 19.55 13 19 13Z" stroke="#AAAAAA" stroke-opacity="1.000000" stroke-width="2.000000" stroke-linejoin="round"/>
		<path id="Vector" d="M5 13C4.44 13 4 12.55 4 12C4 11.44 4.44 11 5 11C5.55 11 6 11.44 6 12C6 12.55 5.55 13 5 13Z" stroke="#AAAAAA" stroke-opacity="1.000000" stroke-width="2.000000" stroke-linejoin="round"/>
	</g>
</svg>
