<svg width="20.000000" height="20.000000" viewBox="0 0 20 20" fill="none" xmlns="http://www.w3.org/2000/svg" xmlns:xlink="http://www.w3.org/1999/xlink">
	<desc>
			Created with Pixso.
	</desc>
	<defs>
		<clipPath id="clip11_15">
			<rect id="edit (1) 1" rx="-0.500000" width="19.000000" height="19.000000" transform="translate(0.500000 0.500000)" fill="white" fill-opacity="0"/>
		</clipPath>
	</defs>
	<rect id="edit (1) 1" rx="-0.500000" width="19.000000" height="19.000000" transform="translate(0.500000 0.500000)" fill="#FFFFFF" fill-opacity="0"/>
	<g clip-path="url(#clip11_15)">
		<path id="Vector" d="M9 4L3.55 4C3.14 4 2.74 4.16 2.45 4.45C2.16 4.74 2 5.14 2 5.55L2 16.44C2 16.85 2.16 17.25 2.45 17.54C2.74 17.83 3.14 18 3.55 18L14.44 18C14.85 18 15.25 17.83 15.54 17.54C15.83 17.25 16 16.85 16 16.44L16 11" stroke="#E52A34" stroke-opacity="1.000000" stroke-width="1.500000" stroke-linejoin="round" stroke-linecap="round"/>
		<path id="Vector" d="M16.34 2C16.78 2 17.2 2.17 17.51 2.48C17.82 2.79 18 3.21 18 3.65C18 4.09 17.82 4.51 17.51 4.82L10.11 12.22L7 13L7.77 9.88L15.17 2.48C15.48 2.17 15.9 2 16.34 2Z" stroke="#E52A34" stroke-opacity="1.000000" stroke-width="1.500000" stroke-linejoin="round"/>
	</g>
</svg>
