<svg width="16.000000" height="16.000000" viewBox="0 0 16 16" fill="none" xmlns="http://www.w3.org/2000/svg" xmlns:xlink="http://www.w3.org/1999/xlink">
	<desc>
			Created with Pixso.
	</desc>
	<defs>
		<clipPath id="clip16_32">
			<rect id="heart (3) 1" rx="-0.500000" width="15.000000" height="15.000000" transform="translate(0.500000 0.500000)" fill="white" fill-opacity="0"/>
		</clipPath>
	</defs>
	<rect id="heart (3) 1" rx="-0.500000" width="15.000000" height="15.000000" transform="translate(0.500000 0.500000)" fill="#FFFFFF" fill-opacity="0"/>
	<g clip-path="url(#clip16_32)">
		<path id="Vector" d="M12.7 2.27C12.25 2.09 11.78 1.99 11.3 1.99C10.81 1.99 10.34 2.09 9.89 2.27C9.45 2.46 9.04 2.73 8.7 3.07L8 3.78L7.29 3.07C6.6 2.38 5.67 1.99 4.69 1.99C3.72 1.99 2.79 2.38 2.1 3.07C1.41 3.76 1.03 4.69 1.03 5.66C1.03 6.63 1.41 7.57 2.1 8.26L2.81 8.96L8 14.15L13.18 8.96L13.89 8.26C14.23 7.91 14.5 7.51 14.68 7.07C14.87 6.62 14.96 6.14 14.96 5.66C14.96 5.18 14.87 4.7 14.68 4.26C14.5 3.81 14.23 3.41 13.89 3.07C13.55 2.73 13.14 2.46 12.7 2.27Z" stroke="#E52A34" stroke-opacity="1.000000" stroke-width="1.333333" stroke-linejoin="round"/>
		<circle id="Ellipse 2" cx="5.500000" cy="5.500000" r="5.500000" fill="#E52A34" fill-opacity="0.320000"/>
	</g>
</svg>
