<svg width="20.000000" height="20.000000" viewBox="0 0 20 20" fill="none" xmlns="http://www.w3.org/2000/svg" xmlns:xlink="http://www.w3.org/1999/xlink">
	<desc>
			Created with Pixso.
	</desc>
	<defs>
		<clipPath id="clip16_0">
			<rect id="thumbs-up 1" rx="-0.500000" width="19.000000" height="19.000000" transform="matrix(-1 0 0 1 20.5 0.5)" fill="white" fill-opacity="0"/>
		</clipPath>
	</defs>
	<rect id="thumbs-up 1" rx="-0.500000" width="19.000000" height="19.000000" transform="matrix(-1 0 0 1 20.5 0.5)" fill="#FFFFFF" fill-opacity="0"/>
	<g clip-path="url(#clip16_0)">
		<path id="Vector" d="M14.16 9.16L16.66 9.16C17.1 9.16 17.53 9.34 17.84 9.65C18.15 9.96 18.33 10.39 18.33 10.83L18.33 16.66C18.33 17.1 18.15 17.53 17.84 17.84C17.53 18.15 17.1 18.33 16.66 18.33L14.16 18.33L4.76 18.33C4.36 18.33 3.97 18.19 3.66 17.93C3.36 17.67 3.16 17.31 3.1 16.91L1.95 9.41C1.91 9.17 1.92 8.93 1.99 8.7C2.06 8.46 2.18 8.25 2.34 8.07C2.49 7.89 2.69 7.74 2.91 7.64C3.13 7.54 3.37 7.49 3.61 7.49L8.33 7.49L8.33 4.16C8.33 3.5 8.59 2.86 9.06 2.39C9.53 1.93 10.17 1.66 10.83 1.66L14.16 9.16L14.16 18.33" stroke="#AAAAAA" stroke-opacity="1.000000" stroke-width="2.000000" stroke-linejoin="round"/>
	</g>
</svg>
