<svg width="92.000000" height="24.000000" viewBox="0 0 92 24" fill="none" xmlns="http://www.w3.org/2000/svg" xmlns:xlink="http://www.w3.org/1999/xlink">
	<desc>
			Created with Pixso.
	</desc>
	<defs>
		<clipPath id="clip2_8">
			<rect rx="-0.500000" width="91.000000" height="23.000000" transform="translate(0.500000 0.500000)" fill="white" fill-opacity="0"/>
		</clipPath>
	</defs>
	<rect rx="-0.500000" width="91.000000" height="23.000000" transform="translate(0.500000 0.500000)" fill="#FFFFFF" fill-opacity="0"/>
	<g clip-path="url(#clip2_8)">
		<path d="M67.77 1.71C67.77 0.77 68.57 0 69.56 0L90.19 0C91.18 0 91.98 0.77 91.98 1.71L91.98 22.28C91.98 23.23 91.18 24 90.19 24L69.56 24C68.57 24 67.77 23.23 67.77 22.28L67.77 1.71L67.77 1.71Z" fill="#006699" fill-opacity="1.000000" fill-rule="nonzero"/>
		<path d="M0.01 20.1L10.11 20.1L10.11 16.83L3.66 16.83L3.66 4.36L0.01 4.36L0.01 20.1ZM15.23 20.1L15.23 9.26L11.57 9.26L11.57 20.1L15.23 20.1ZM13.4 7.78C14.67 7.78 15.47 6.95 15.47 5.91C15.44 4.85 14.67 4.04 13.42 4.04C12.17 4.04 11.35 4.85 11.35 5.91C11.35 6.95 12.15 7.78 13.37 7.78L13.4 7.78ZM16.92 20.1L20.58 20.1L20.58 14.05C20.58 13.72 20.6 13.4 20.7 13.17C20.96 12.52 21.57 11.85 22.58 11.85C23.9 11.85 24.43 12.84 24.43 14.3L24.43 20.1L28.08 20.1L28.08 13.88C28.08 10.56 26.28 9.01 23.87 9.01C21.9 9.01 21.04 10.09 20.55 10.83L20.58 10.83L20.58 9.26L16.92 9.26C16.97 10.28 16.92 20.1 16.92 20.1ZM33.24 4.36L29.59 4.36L29.59 20.1L33.24 20.1L33.24 16.58L34.16 15.45L37.02 20.1L41.52 20.1L36.71 13.37L40.92 8.79L36.51 8.79C36.51 8.79 33.51 12.89 33.24 13.37L33.24 4.36Z" fill="#17272F" fill-opacity="1.000000" fill-rule="nonzero"/>
		<path d="M51.29 15.58C51.34 15.3 51.42 14.77 51.42 14.16C51.42 11.36 49.97 8.52 46.17 8.52C42.11 8.52 40.23 11.68 40.23 14.56C40.23 18.11 42.51 20.33 46.51 20.33C48.1 20.33 49.56 20.1 50.77 19.61L50.28 17.23C49.3 17.56 48.29 17.72 47.04 17.72C45.33 17.72 43.84 17.03 43.72 15.55L51.29 15.58L51.29 15.58ZM43.69 13.14C43.79 12.22 44.42 10.85 45.98 10.85C47.64 10.85 48.02 12.31 48.02 13.14L43.69 13.14L43.69 13.14ZM60.44 4.36L60.44 9.81L60.39 9.81C59.86 9.05 58.76 8.54 57.29 8.54C54.47 8.54 52 10.76 52.02 14.55C52.02 18.06 54.26 20.35 57.05 20.35C58.56 20.35 60.01 19.71 60.73 18.46L60.8 18.46L60.95 20.1L64.19 20.1C64.14 19.34 64.1 18.02 64.1 16.72L64.1 4.36L60.44 4.36L60.44 4.36ZM60.44 15.08C60.44 15.36 60.42 15.64 60.37 15.87C60.15 16.86 59.29 17.56 58.23 17.56C56.71 17.56 55.73 16.35 55.73 14.46C55.73 12.68 56.57 11.24 58.25 11.24C59.38 11.24 60.18 12.01 60.39 12.95C60.44 13.16 60.44 13.39 60.44 13.6L60.44 15.08L60.44 15.08Z" fill="#17272F" fill-opacity="1.000000" fill-rule="nonzero"/>
		<path d="M75.11 20.09L75.11 9.25L71.46 9.25L71.46 20.09L75.11 20.09L75.11 20.09ZM73.28 7.77C74.56 7.77 75.35 6.94 75.35 5.9C75.33 4.83 74.56 4.02 73.31 4.02C72.06 4.02 71.24 4.83 71.24 5.9C71.24 6.94 72.03 7.77 73.26 7.77L73.28 7.77L73.28 7.77ZM77.14 20.09L80.79 20.09L80.79 14.03C80.79 13.71 80.82 13.39 80.91 13.16C81.18 12.51 81.78 11.84 82.79 11.84C84.11 11.84 84.64 12.83 84.64 14.29L84.64 20.09L88.3 20.09L88.3 13.87C88.3 10.54 86.49 8.99 84.09 8.99C82.12 8.99 81.25 10.08 80.77 10.82L80.79 10.82L80.79 9.25L77.14 9.25C77.18 10.27 77.14 20.09 77.14 20.09L77.14 20.09Z" fill="#FFFFFF" fill-opacity="1.000000" fill-rule="nonzero"/>
	</g>
</svg>
