<svg width="20.000000" height="20.000000" viewBox="0 0 20 20" fill="none" xmlns="http://www.w3.org/2000/svg" xmlns:xlink="http://www.w3.org/1999/xlink">
	<desc>
			Created with Pixso.
	</desc>
	<defs>
		<clipPath id="clip16_4">
			<rect id="share-2 1" rx="-0.500000" width="19.000000" height="19.000000" transform="translate(0.500000 0.500000)" fill="white" fill-opacity="0"/>
		</clipPath>
	</defs>
	<rect id="share-2 1" rx="-0.500000" width="19.000000" height="19.000000" transform="translate(0.500000 0.500000)" fill="#FFFFFF" fill-opacity="0"/>
	<g clip-path="url(#clip16_4)">
		<path id="Vector" d="M15 6.66C13.61 6.66 12.5 5.54 12.5 4.16C12.5 2.78 13.61 1.66 15 1.66C16.38 1.66 17.5 2.78 17.5 4.16C17.5 5.54 16.38 6.66 15 6.66Z" stroke="#AAAAAA" stroke-opacity="1.000000" stroke-width="2.000000" stroke-linejoin="round"/>
		<path id="Vector" d="M5 12.5C3.61 12.5 2.5 11.38 2.5 10C2.5 8.61 3.61 7.5 5 7.5C6.38 7.5 7.5 8.61 7.5 10C7.5 11.38 6.38 12.5 5 12.5Z" stroke="#AAAAAA" stroke-opacity="1.000000" stroke-width="2.000000" stroke-linejoin="round"/>
		<path id="Vector" d="M15 18.33C13.61 18.33 12.5 17.21 12.5 15.83C12.5 14.45 13.61 13.33 15 13.33C16.38 13.33 17.5 14.45 17.5 15.83C17.5 17.21 16.38 18.33 15 18.33Z" stroke="#AAAAAA" stroke-opacity="1.000000" stroke-width="2.000000" stroke-linejoin="round"/>
		<path id="Vector" d="M7.15 11.25L12.85 14.57" stroke="#AAAAAA" stroke-opacity="1.000000" stroke-width="2.000000" stroke-linejoin="round" stroke-linecap="round"/>
		<path id="Vector" d="M12.84 5.42L7.15 8.74" stroke="#AAAAAA" stroke-opacity="1.000000" stroke-width="2.000000" stroke-linejoin="round" stroke-linecap="round"/>
	</g>
</svg>
