<svg width="16.000000" height="16.000000" viewBox="0 0 16 16" fill="none" xmlns="http://www.w3.org/2000/svg" xmlns:xlink="http://www.w3.org/1999/xlink">
	<desc>
			Created with Pixso.
	</desc>
	<defs>
		<clipPath id="clip16_34">
			<rect id="thumbs-up (1) 1" rx="-0.500000" width="15.000000" height="15.000000" transform="matrix(-1 0 0 1 16.5 0.5)" fill="white" fill-opacity="0"/>
		</clipPath>
	</defs>
	<rect id="thumbs-up (1) 1" rx="-0.500000" width="15.000000" height="15.000000" transform="matrix(-1 0 0 1 16.5 0.5)" fill="#FFFFFF" fill-opacity="0"/>
	<g clip-path="url(#clip16_34)">
		<path id="Vector" d="M11.33 7.33L13.33 7.33C13.68 7.33 14.02 7.47 14.27 7.72C14.52 7.97 14.66 8.31 14.66 8.66L14.66 13.33C14.66 13.68 14.52 14.02 14.27 14.27C14.02 14.52 13.68 14.66 13.33 14.66L11.33 14.66L3.81 14.66C3.49 14.67 3.17 14.55 2.93 14.34C2.68 14.14 2.52 13.85 2.48 13.53L1.56 7.53C1.53 7.34 1.54 7.14 1.59 6.96C1.65 6.77 1.74 6.6 1.87 6.45C1.99 6.31 2.15 6.19 2.33 6.11C2.5 6.03 2.7 5.99 2.89 6L6.66 6L6.66 3.33C6.66 2.8 6.87 2.29 7.25 1.91C7.62 1.54 8.13 1.33 8.66 1.33L11.33 7.33L11.33 14.66" stroke="#388BF2" stroke-opacity="1.000000" stroke-width="1.333333" stroke-linejoin="round"/>
		<circle id="Ellipse 2" cx="5.500000" cy="5.500000" r="5.500000" fill="#388BF2" fill-opacity="0.320000"/>
	</g>
</svg>
