<svg width="12.000000" height="12.000000" viewBox="0 0 12 12" fill="none" xmlns="http://www.w3.org/2000/svg" xmlns:xlink="http://www.w3.org/1999/xlink">
	<desc>
			Created with Pixso.
	</desc>
	<defs>
		<clipPath id="clip17_42">
			<rect id="users (6) 2" rx="-0.500000" width="11.000000" height="11.000000" transform="translate(0.500000 0.500000)" fill="white" fill-opacity="0"/>
		</clipPath>
	</defs>
	<rect id="users (6) 2" rx="-0.500000" width="11.000000" height="11.000000" transform="translate(0.500000 0.500000)" fill="#FFFFFF" fill-opacity="0"/>
	<g clip-path="url(#clip17_42)">
		<path id="Vector" d="M8.5 10.5L8.5 9.5C8.5 8.96 8.28 8.46 7.91 8.08C7.53 7.71 7.03 7.5 6.5 7.5L2.5 7.5C1.96 7.5 1.46 7.71 1.08 8.08C0.71 8.46 0.5 8.96 0.5 9.5L0.5 10.5" stroke="#006699" stroke-opacity="1.000000" stroke-width="1.000000" stroke-linejoin="round" stroke-linecap="round"/>
		<path id="Vector" d="M4.5 5.5C3.39 5.5 2.5 4.6 2.5 3.5C2.5 2.39 3.39 1.5 4.5 1.5C5.6 1.5 6.5 2.39 6.5 3.5C6.5 4.6 5.6 5.5 4.5 5.5Z" stroke="#006699" stroke-opacity="1.000000" stroke-width="1.000000" stroke-linejoin="round"/>
		<path id="Vector" d="M11.5 10.5L11.5 9.5C11.49 9.05 11.35 8.62 11.08 8.27C10.8 7.92 10.42 7.67 10 7.56" stroke="#006699" stroke-opacity="1.000000" stroke-width="1.000000" stroke-linejoin="round" stroke-linecap="round"/>
		<path id="Vector" d="M8 1.56C8.43 1.67 8.81 1.92 9.08 2.27C9.35 2.62 9.5 3.05 9.5 3.5C9.5 3.94 9.35 4.37 9.08 4.72C8.81 5.07 8.43 5.32 8 5.44" stroke="#006699" stroke-opacity="1.000000" stroke-width="1.000000" stroke-linejoin="round" stroke-linecap="round"/>
	</g>
</svg>
